<svg width="21" height="21" viewBox="0 0 21 21" fill="none" xmlns="http://www.w3.org/2000/svg">
<path d="M20.7353 19.4872L14.7101 13.4577C15.8979 12.0332 16.6124 10.2127 16.6124 8.2244C16.6124 3.68828 12.8896 0 8.31048 0C3.73132 0 0 3.69258 0 8.2287C0 12.7648 3.72272 16.4531 8.30187 16.4531C10.2472 16.4531 12.0375 15.786 13.4577 14.6714L19.5045 20.7181C19.8574 21.071 20.3824 21.071 20.7353 20.7181C21.0882 20.3652 21.0882 19.8401 20.7353 19.4872ZM1.76452 8.2287C1.76452 4.66522 4.69966 1.76882 8.30187 1.76882C11.9041 1.76882 14.8392 4.66522 14.8392 8.2287C14.8392 11.7922 11.9041 14.6886 8.30187 14.6886C4.69966 14.6886 1.76452 11.7879 1.76452 8.2287Z" fill="black"/>
</svg>
